<svg width="20" height="20" viewBox="0 0 20 20" fill="none" xmlns="http://www.w3.org/2000/svg">
<path fill-rule="evenodd" clip-rule="evenodd" d="M2.50008 2.5C2.03984 2.5 1.66675 2.8731 1.66675 3.33333C1.66675 3.79357 2.03984 4.16667 2.50008 4.16667V3.33333L2.50009 4.16667H2.50013H2.50026H2.50036H2.50048H2.50062H2.50079H2.50167H2.50289H2.50363H2.50403H2.50446H2.50636H2.5086H2.50921H2.50984H2.51117H2.54321H2.66284H3.073H3.50156L5.43747 12.6847C5.53729 13.1239 5.96702 13.4025 6.40595 13.3186C6.45668 13.3283 6.50904 13.3333 6.56258 13.3333H15.0001C15.3475 13.3333 15.6584 13.1179 15.7804 12.7926L18.2804 6.12594C18.3763 5.87002 18.3407 5.58332 18.185 5.35867C18.0293 5.13403 17.7734 5 17.5001 5H5.40012L4.97936 3.14865C4.89313 2.76924 4.55583 2.5 4.16675 2.5H3.073H2.66284H2.54321H2.53812H2.53334H2.53219H2.53106H2.52886H2.52469H2.51729H2.51645H2.51564H2.51484H2.51407H2.51331H2.51258H2.51117H2.50636H2.50446H2.50403H2.50363H2.50289H2.50079H2.50048H2.50036H2.50026H2.50013H2.50009L2.50008 3.33333V2.5ZM5.77891 6.66667L6.91527 11.6667H14.4226L16.2976 6.66667H5.77891ZM8.33342 14.1667C7.41294 14.1667 6.66675 14.9129 6.66675 15.8333C6.66675 16.7538 7.41294 17.5 8.33342 17.5C9.25389 17.5 10.0001 16.7538 10.0001 15.8333C10.0001 14.9129 9.25389 14.1667 8.33342 14.1667ZM11.6667 15.8333C11.6667 14.9129 12.4129 14.1667 13.3334 14.1667C14.2539 14.1667 15.0001 14.9129 15.0001 15.8333C15.0001 16.7538 14.2539 17.5 13.3334 17.5C12.4129 17.5 11.6667 16.7538 11.6667 15.8333Z" fill="#FF7A00"/>
</svg>
