<svg width="12" height="18" viewBox="0 0 12 18" fill="none" xmlns="http://www.w3.org/2000/svg">
<path fill-rule="evenodd" clip-rule="evenodd" d="M9.58441 8.87971L6.00002 14.7921L2.41563 8.87971C0.677097 6.01205 2.69705 2.30942 6.00002 2.30942C9.30299 2.30942 11.3229 6.01205 9.58441 8.87971ZM1.048 9.74421C-1.35388 5.78238 1.43679 0.666992 6.00002 0.666992C10.5633 0.666992 13.3539 5.78238 10.952 9.74421L6.53559 17.029C6.28934 17.4352 5.7107 17.4352 5.46445 17.029L1.048 9.74421ZM6.00018 4.77305C5.11184 4.77305 4.3917 5.50839 4.3917 6.41547C4.3917 7.32256 5.11184 8.0579 6.00018 8.0579C6.88852 8.0579 7.60866 7.32256 7.60866 6.41547C7.60866 5.50839 6.88852 4.77305 6.00018 4.77305Z" fill="#1C294D" fill-opacity="0.5"/>
</svg>
